# xmcd CD database file
#
# Track frame offsets:
#	150
#	50178
#	82044
#	119657
#	157810
#	211708
#	239622
#	259010
#	297596
#
# Disc length: 4136 seconds
#
# Revision: 0
# Processed by: cddbd v1.5.2PL0 Copyright (c) Steve Scherf et al.
# Submitted via: CDex 1.51
#
DISCID=86102609
DTITLE=Emil Viklický Trio - Cookin' in Bonn
DYEAR=2006
DGENRE=Jazz
TTITLE0=Father's Blues
TTITLE1=Lover Come Back - Vrát' Sa Milý
TTITLE2=Aspen Leaf
TTITLE3=Desire
TTITLE4=Wine Oh Wine
TTITLE5=Cottontail
TTITLE6=Song For Jane
TTITLE7=Buhaina
TTITLE8=Mona Lisa
EXTD=YEAR: 2006
EXTT0=
EXTT1=
EXTT2=
EXTT3=
EXTT4=
EXTT5=
EXTT6=
EXTT7=
EXTT8=
PLAYORDER=
